#tb 0: 1/1000
0,          0,          0,        0,    59400, fb0e8171b0f91d9b2ceb5430db27a67b
0,         33,         33,        0,    59400, 73f121e6aa0e6290cfd06ac9b033c772
0,         66,         66,        0,    59400, 4113897efc44f49f5169a579bee03596
0,        100,        100,        0,    59400, aec1d4cf1a15e12b689980cfe136d5d6
0,        133,        133,        0,    59400, 1322af65f647254330120e67ddae38bd
0,        166,        166,        0,    59400, 5d28c1684451812c9db41433e6286d85
0,        200,        200,        0,    59400, 33843fc49d1d8655520c2f42332222ca
0,        233,        233,        0,    59400, 92a8125d8c75eaf6159d5f431c5c71bf
0,        266,        266,        0,    59400, 5bc96553842f65a3e37f012b72b580f5
0,        300,        300,        0,    59400, de5eb6299ee5034dc3b01cdc94bf810a
